<svg width="478" height="212" viewBox="0 0 478 212" fill="none" xmlns="http://www.w3.org/2000/svg">
<path d="M477.572 105.315C477.572 121.525 477.572 137.725 477.572 153.935C477.572 156.625 474.912 159.365 472.252 159.435C469.842 159.495 466.842 156.555 466.842 153.995C466.842 148.455 466.912 142.915 466.942 137.375C466.942 136.855 466.782 136.345 466.702 135.825C466.402 136.135 466.032 136.415 465.812 136.775C454.112 155.645 433.242 165.055 411.472 160.675C390.622 156.475 376.152 144.175 369.412 123.985C359.602 94.6245 375.012 63.9345 404.312 54.0145C425.722 46.7745 448.512 53.6245 462.552 71.2745C463.732 72.7645 464.652 74.4645 465.722 76.0445C465.982 76.4245 466.372 76.7145 466.702 77.0445C466.782 76.6145 466.932 76.1845 466.932 75.7545C466.912 69.5845 466.852 63.4245 466.852 57.2545C466.852 53.7445 469.062 51.3945 472.272 51.3645C475.042 51.3345 477.602 54.1845 477.602 57.3045C477.602 73.3045 477.602 89.3045 477.602 105.305H477.582L477.572 105.315ZM377.322 104.265C376.382 130.355 394.902 150.755 420.602 151.505C446.062 152.245 465.232 133.565 466.722 109.825C468.462 82.2445 449.162 63.3845 425.742 61.6145C397.872 59.5045 377.992 80.9045 377.312 104.265H377.322Z" fill="#DD5239"/>
<path d="M212.502 105.455C212.502 121.405 212.502 137.365 212.502 153.315C212.502 156.155 209.672 159.365 207.102 159.455C204.562 159.545 201.772 156.725 201.742 153.755C201.682 148.305 201.772 142.845 201.802 137.385C201.802 136.815 201.732 136.245 201.702 135.675C201.332 136.075 200.882 136.425 200.602 136.885C193.152 149.075 182.482 157.135 168.592 160.145C148.192 164.565 130.372 159.245 115.992 143.925C104.342 131.515 99.8717 116.565 101.782 99.7045C103.692 82.8645 112.022 69.7145 125.942 60.4345C149.712 44.5845 183.632 49.0945 200.102 75.3145C200.532 75.9945 201.132 76.5545 201.652 77.1745C201.652 76.4145 201.652 75.6545 201.652 74.8945C201.662 68.7745 201.602 62.6445 201.722 56.5245C201.782 53.4345 204.252 51.2445 207.162 51.3645C210.062 51.4745 212.492 54.3545 212.492 57.7045C212.492 73.6145 212.492 89.5345 212.492 105.445H212.512L212.502 105.455ZM201.682 106.585C201.612 80.6145 182.182 61.3945 155.912 61.5545C130.382 61.7145 112.082 81.0645 111.832 106.285C111.572 131.875 131.812 151.665 157.532 151.585C182.542 151.505 201.762 131.915 201.682 106.585Z" fill="#DD5239"/>
<path d="M228.022 0.034515C231.352 0.034515 234.692 0.124515 238.022 0.0045153C240.482 -0.0854847 241.402 1.17452 241.542 3.37452C243.032 26.6345 244.502 49.8945 246.022 73.1545C247.002 88.1445 248.022 103.135 249.052 118.125C249.942 130.995 250.672 143.875 251.882 156.715C252.642 164.785 254.292 172.705 258.332 179.955C263.122 188.545 270.442 194.165 279.482 197.305C295.652 202.925 311.892 202.875 327.632 195.705C339.502 190.295 346.642 180.685 349.912 168.145C350.412 166.215 350.572 164.135 351.402 162.375C352.652 159.725 355.102 158.595 357.872 159.685C360.742 160.815 362.162 163.105 361.462 166.375C357.282 185.915 346.112 199.715 327.452 206.975C315.702 211.545 303.432 212.565 290.892 210.815C279.342 209.205 268.842 205.255 259.842 197.715C248.352 188.085 243.082 175.265 241.642 160.765C240.332 147.565 239.522 134.315 238.582 121.075C237.052 99.4445 235.602 77.8045 234.122 56.1745C233.112 41.3945 232.142 26.6145 230.992 11.8445C230.932 11.1145 229.402 9.98452 228.502 9.92452C224.972 9.70452 221.422 9.86452 217.882 9.83452C214.682 9.80452 212.512 8.06451 212.452 4.99451C212.402 1.87452 214.612 0.154515 217.772 0.0845152C221.182 0.00451523 224.602 0.0645157 228.022 0.0645157C228.022 0.0645157 228.022 0.044515 228.022 0.034515Z" fill="#DD5239"/>
<path d="M35.1417 161.615C24.0617 161.345 11.4417 157.325 2.4317 145.295C-1.1983 140.445 -0.838298 137.195 4.0117 135.445C5.3717 134.955 8.2617 135.815 9.0317 136.985C17.8917 150.435 30.9717 152.605 45.4817 150.975C51.7217 150.275 57.5817 148.225 61.8417 143.335C68.4317 135.765 68.6117 121.725 55.2717 116.645C47.8817 113.835 40.1717 111.855 32.5817 109.595C23.3117 106.835 13.7917 104.485 7.2117 96.6245C-0.688298 87.1745 0.411702 72.0545 9.2117 62.8445C17.7017 53.9445 28.2917 51.0245 40.1417 51.4445C51.2417 51.8445 60.9317 55.6445 68.3017 64.1245C70.0617 66.1545 71.1017 69.1145 71.5717 71.8045C71.7417 72.7845 69.4217 74.9345 67.9517 75.2545C66.5617 75.5545 64.1117 74.6145 63.3217 73.4245C54.8717 60.6845 35.1817 58.9445 23.7217 64.3745C15.5817 68.2345 11.1717 75.8245 12.6817 84.6545C13.7717 91.0445 18.7017 94.5945 24.4217 96.5145C33.5417 99.5645 42.8717 101.995 52.0617 104.855C61.8017 107.885 70.7317 111.975 75.0417 122.325C78.9917 131.815 75.1417 145.905 66.9117 152.445C58.5017 159.125 48.8817 161.565 35.1517 161.615H35.1417Z" fill="#DD5239"/>
<path d="M303.982 161.625C290.312 161.595 277.942 158.315 268.582 147.505C267.392 146.125 266.332 144.605 265.392 143.045C263.692 140.185 264.422 137.825 267.102 135.945C269.792 134.055 272.112 134.965 273.682 137.295C282.522 150.375 295.442 152.615 309.782 150.995C316.412 150.245 322.512 148.015 326.812 142.615C332.672 135.245 332.852 122.025 319.812 116.685C313.582 114.135 306.932 112.585 300.472 110.595C290.622 107.555 280.292 105.585 272.642 97.7245C265.732 90.6245 264.402 77.1545 269.492 68.5545C276.512 56.7145 287.382 52.0145 300.442 51.4445C314.022 50.8545 325.722 55.1145 334.312 66.1045C335.522 67.6545 336.622 70.3545 336.062 71.9045C335.482 73.5145 332.942 74.7245 331.012 75.3945C330.162 75.6845 328.302 74.4545 327.582 73.4345C320.672 63.6545 310.652 61.1545 299.572 61.6545C290.682 62.0545 282.772 64.9745 278.632 73.6545C274.222 82.8945 277.212 91.5745 286.682 95.5045C294.082 98.5745 301.962 100.535 309.682 102.805C318.472 105.395 327.252 107.805 334.222 114.375C343.652 123.265 342.692 140.735 334.082 149.665C326.332 157.695 316.342 161.585 303.992 161.645L303.982 161.625Z" fill="#DD5239"/>
</svg>
